<?xml version="1.0" standalone="no"?>
<!DOCTYPE svg PUBLIC "-//W3C//DTD SVG 20010904//EN"
 "http://www.w3.org/TR/2001/REC-SVG-20010904/DTD/svg10.dtd">
<svg version="1.0" xmlns="http://www.w3.org/2000/svg"
 width="260.000000pt" height="260.000000pt" viewBox="0 0 260.000000 260.000000"
 preserveAspectRatio="xMidYMid meet">
<metadata>
Created by potrace 1.11, written by Peter Selinger 2001-2013
</metadata>
<g transform="translate(0.000000,260.000000) scale(0.100000,-0.100000)"
fill="#000000" stroke="none">
<path d="M1312 2247 c-12 -13 -22 -26 -22 -30 0 -7 -35 -84 -90 -202 -66 -138
-180 -388 -210 -457 -5 -13 -14 -30 -19 -38 -4 -8 -15 -31 -23 -50 -9 -19 -29
-64 -46 -100 -42 -88 -75 -164 -102 -230 -43 -107 -52 -126 -101 -222 -64
-129 -67 -133 -118 -201 -44 -59 -101 -96 -147 -97 -33 0 -73 37 -80 75 -7 39
-9 34 252 561 90 181 164 336 164 342 0 20 -300 12 -311 -8 -9 -15 -151 -309
-251 -520 -72 -151 -97 -202 -108 -220 -16 -28 -40 -88 -40 -102 0 -7 -6 -20
-13 -29 -20 -26 -13 -171 11 -222 44 -91 131 -140 250 -139 41 1 80 6 87 12
11 9 39 25 134 76 13 7 27 17 30 21 14 20 131 103 144 103 9 0 18 -13 22 -32
14 -61 47 -104 115 -150 45 -31 45 -31 148 -25 57 3 109 10 115 15 7 5 24 12
39 16 113 27 346 254 408 397 5 13 14 31 19 39 5 8 17 33 26 55 10 22 24 52
32 67 7 14 13 38 13 52 0 15 6 42 14 61 9 21 15 69 15 127 0 51 0 98 1 105 0
6 15 21 34 32 27 17 50 21 124 21 102 0 144 -16 163 -62 15 -36 26 -12 -223
-508 -114 -228 -204 -417 -200 -420 4 -3 74 -3 156 0 l148 5 19 35 c10 19 60
121 110 225 50 105 95 197 100 205 5 8 12 22 15 30 3 8 10 22 15 30 5 8 12 22
15 30 3 8 10 22 15 30 5 8 12 22 15 30 4 8 26 57 50 108 24 51 44 98 44 105 0
7 6 19 12 25 9 9 13 48 13 120 0 99 -2 110 -26 145 -30 43 -96 96 -120 97 -9
0 -22 7 -29 15 -18 22 -292 22 -343 0 -20 -8 -53 -15 -74 -15 -21 0 -47 -7
-57 -15 -11 -8 -34 -15 -50 -15 -17 0 -40 -7 -50 -15 -11 -8 -32 -15 -47 -15
-14 0 -32 -7 -39 -15 -7 -8 -23 -15 -35 -15 -12 0 -28 -7 -35 -15 -7 -8 -23
-15 -35 -15 -12 0 -28 -7 -35 -15 -16 -19 -49 -16 -63 5 -8 15 18 85 68 183 8
16 15 34 15 42 0 7 7 18 15 25 8 7 15 23 15 35 0 12 7 28 15 35 8 7 15 20 15
29 0 8 14 45 31 81 17 36 37 80 45 98 60 140 75 174 86 192 4 8 11 22 14 30 3
8 10 23 15 33 5 10 7 22 4 27 -4 6 -63 10 -134 10 -120 0 -129 -1 -149 -23z
m48 -1044 c24 -31 24 -78 0 -143 -67 -182 -205 -368 -309 -415 l-41 -18 -26
24 c-22 21 -25 30 -21 69 8 71 17 100 50 170 66 136 162 258 247 311 56 36 73
36 100 2z"/>
<path d="M718 2029 c-89 -45 -143 -198 -100 -284 25 -52 42 -65 84 -65 82 0
156 89 165 199 7 85 -7 130 -48 154 -37 21 -53 20 -101 -4z"/>
<path d="M2414 2035 c-46 -20 -101 -90 -109 -136 -4 -21 -11 -41 -16 -45 -15
-9 -10 -59 10 -106 12 -30 30 -50 55 -63 l36 -20 46 25 c25 14 55 37 66 53 25
35 68 140 68 167 0 35 -47 115 -75 128 -32 15 -41 14 -81 -3z"/>
</g>
</svg>
